<svg id="Layer_1" data-name="Layer 1" xmlns="http://www.w3.org/2000/svg" xmlns:xlink="http://www.w3.org/1999/xlink" viewBox="0 0 800 800"><defs><style>.cls-1{fill:#232323;}.cls-2{fill:none;stroke:#232323;stroke-miterlimit:10;stroke-width:10px;}.cls-3{clip-path:url(#clip-path);}</style><clipPath id="clip-path"><path class="cls-1" d="M378.84,499.14l25,60q17.14,42.9,34.31,55.76Q421,636.39,391.7,636.38q-17.86,0-26.8-9.29t-18.23-31.45l-30-70.77q-12.16-28.58-24.66-38.6t-33.6-10a328,328,0,0,0-39,2.15v153q-12.17,2.85-33.24,2.86t-34.67-2.86V110.27l5-4.28h25.73q21.45,0,29.31,10.36t7.86,34V420.51l25.74-1.43q9.27,0,17.15-10.72l65.76-101.51q9.29-15.72,19.31-22.87t30.38-7.15q20.37,0,33.23.71l4.29,5.72L334.52,409.07a105.22,105.22,0,0,1-22.16,25.73Q356,446.25,378.84,499.14Z"/></clipPath></defs><title>logo</title><rect class="cls-2" x="77.3" y="219.12" width="625.59" height="351.7"/><path class="cls-1" d="M378.84,499.14l25,60q17.14,42.9,34.31,55.76Q421,636.39,391.7,636.38q-17.86,0-26.8-9.29t-18.23-31.45l-30-70.77q-12.16-28.58-24.66-38.6t-33.6-10a328,328,0,0,0-39,2.15v153q-12.17,2.85-33.24,2.86t-34.67-2.86V110.27l5-4.28h25.73q21.45,0,29.31,10.36t7.86,34V420.51l25.74-1.43q9.27,0,17.15-10.72l65.76-101.51q9.29-15.72,19.31-22.87t30.38-7.15q20.37,0,33.23.71l4.29,5.72L334.52,409.07a105.22,105.22,0,0,1-22.16,25.73Q356,446.25,378.84,499.14Z"/><g class="cls-3"><rect class="cls-1" x="151.52" y="105.99" width="1.24" height="530.4"/><rect class="cls-1" x="152.76" y="105.99" width="3.9" height="530.4"/><rect class="cls-1" x="156.66" y="105.99" width="3.9" height="530.4"/><rect class="cls-1" x="160.55" y="105.99" width="3.9" height="530.4"/><rect class="cls-1" x="164.45" y="105.99" width="3.9" height="530.4"/><rect class="cls-1" x="168.34" y="105.99" width="3.9" height="530.4"/><rect class="cls-1" x="172.24" y="105.99" width="3.9" height="530.4"/><rect class="cls-1" x="176.13" y="105.99" width="3.9" height="530.4"/><rect class="cls-1" x="180.03" y="105.99" width="3.9" height="530.4"/><rect class="cls-1" x="183.92" y="105.99" width="3.9" height="530.4"/><rect class="cls-1" x="187.82" y="105.99" width="3.9" height="530.4"/><rect class="cls-1" x="191.72" y="105.99" width="3.9" height="530.4"/><rect class="cls-1" x="195.61" y="105.99" width="3.9" height="530.4"/><rect class="cls-1" x="199.51" y="105.99" width="3.9" height="530.4"/><rect class="cls-1" x="203.4" y="105.99" width="3.9" height="530.4"/><rect class="cls-1" x="207.3" y="105.99" width="3.9" height="530.4"/><rect class="cls-1" x="211.19" y="105.99" width="3.9" height="530.4"/><rect class="cls-1" x="215.09" y="105.99" width="3.9" height="530.4"/><rect class="cls-1" x="218.98" y="105.99" width="3.9" height="530.4"/><rect class="cls-1" x="222.88" y="105.99" width="3.9" height="530.4"/><rect class="cls-1" x="226.77" y="105.99" width="3.9" height="530.4"/><rect class="cls-1" x="230.67" y="105.99" width="3.9" height="530.4"/><rect class="cls-1" x="234.56" y="105.99" width="3.9" height="530.4"/><rect class="cls-1" x="238.46" y="105.99" width="3.9" height="530.4"/><rect class="cls-1" x="242.35" y="105.99" width="3.9" height="530.4"/><rect class="cls-1" x="246.25" y="105.99" width="3.9" height="530.4"/><rect class="cls-1" x="250.14" y="105.99" width="3.9" height="530.4"/><rect class="cls-1" x="254.04" y="105.99" width="3.9" height="530.4"/><rect class="cls-1" x="257.93" y="105.99" width="3.9" height="530.4"/><rect class="cls-1" x="261.83" y="105.99" width="3.9" height="530.4"/><rect class="cls-1" x="265.72" y="105.99" width="3.9" height="530.4"/><rect class="cls-1" x="269.62" y="105.99" width="3.9" height="530.4"/><rect class="cls-1" x="273.51" y="105.99" width="3.9" height="530.4"/><rect class="cls-1" x="277.41" y="105.99" width="3.9" height="530.4"/><rect class="cls-1" x="281.3" y="105.99" width="3.9" height="530.4"/><rect class="cls-1" x="285.2" y="105.99" width="3.9" height="530.4"/><rect class="cls-1" x="289.09" y="105.99" width="3.9" height="530.4"/><rect class="cls-1" x="292.99" y="105.99" width="3.9" height="530.4"/><rect class="cls-1" x="296.88" y="105.99" width="3.9" height="530.4"/><rect class="cls-1" x="300.78" y="105.99" width="3.9" height="530.4"/><rect class="cls-1" x="304.67" y="105.99" width="3.9" height="530.4"/><rect class="cls-1" x="308.57" y="105.99" width="3.9" height="530.4"/><rect class="cls-1" x="312.46" y="105.99" width="3.9" height="530.4"/><rect class="cls-1" x="316.36" y="105.99" width="3.9" height="530.4"/><rect class="cls-1" x="320.25" y="105.99" width="3.9" height="530.4"/><rect class="cls-1" x="324.15" y="105.99" width="3.9" height="530.4"/><rect class="cls-1" x="328.04" y="105.99" width="3.9" height="530.4"/><rect class="cls-1" x="331.94" y="105.99" width="3.9" height="530.4"/><rect class="cls-1" x="335.83" y="105.99" width="3.9" height="530.4"/><rect class="cls-1" x="339.73" y="105.99" width="3.9" height="530.4"/><rect class="cls-1" x="343.62" y="105.99" width="3.9" height="530.4"/><rect class="cls-1" x="347.52" y="105.99" width="3.9" height="530.4"/><rect class="cls-1" x="351.41" y="105.99" width="3.9" height="530.4"/><rect class="cls-1" x="355.31" y="105.99" width="3.9" height="530.4"/><rect class="cls-1" x="359.2" y="105.99" width="3.9" height="530.4"/><rect class="cls-1" x="363.1" y="105.99" width="3.9" height="530.4"/><rect class="cls-1" x="366.99" y="105.99" width="3.9" height="530.4"/><rect class="cls-1" x="370.89" y="105.99" width="3.9" height="530.4"/><rect class="cls-1" x="374.79" y="105.99" width="3.9" height="530.4"/><rect class="cls-1" x="378.68" y="105.99" width="3.9" height="530.4"/><rect class="cls-1" x="382.58" y="105.99" width="3.9" height="530.4"/><rect class="cls-1" x="386.47" y="105.99" width="3.9" height="530.4"/><rect class="cls-1" x="390.37" y="105.99" width="3.9" height="530.4"/><rect class="cls-1" x="394.26" y="105.99" width="3.9" height="530.4"/><rect class="cls-1" x="398.16" y="105.99" width="3.9" height="530.4"/><rect class="cls-1" x="402.05" y="105.99" width="3.9" height="530.4"/><rect class="cls-1" x="405.95" y="105.99" width="3.9" height="530.4"/><rect class="cls-1" x="409.84" y="105.99" width="3.9" height="530.4"/><rect class="cls-1" x="413.74" y="105.99" width="3.9" height="530.4"/><rect class="cls-1" x="417.63" y="105.99" width="3.9" height="530.4"/><rect class="cls-1" x="421.53" y="105.99" width="3.9" height="530.4"/><rect class="cls-1" x="425.42" y="105.99" width="3.9" height="530.4"/><rect class="cls-1" x="429.32" y="105.99" width="3.9" height="530.4"/><rect class="cls-1" x="433.21" y="105.99" width="3.9" height="530.4"/><rect class="cls-1" x="437.11" y="105.99" width="1.06" height="530.4"/></g><path class="cls-1" d="M378.84,499.14l25,60q17.14,42.9,34.31,55.76Q421,636.39,391.7,636.38q-17.86,0-26.8-9.29t-18.23-31.45l-30-70.77q-12.16-28.58-24.66-38.6t-33.6-10a328,328,0,0,0-39,2.15v153q-12.17,2.85-33.24,2.86t-34.67-2.86V110.27l5-4.28h25.73q21.45,0,29.31,10.36t7.86,34V420.51l25.74-1.43q9.27,0,17.15-10.72l65.76-101.51q9.29-15.72,19.31-22.87t30.38-7.15q20.37,0,33.23.71l4.29,5.72L334.52,409.07a105.22,105.22,0,0,1-22.16,25.73Q356,446.25,378.84,499.14Z"/></svg>